<svg width="205" height="66" viewBox="0 0 205 66" fill="none" xmlns="http://www.w3.org/2000/svg">
<rect width="205" height="66" fill="#F8DD15"/>
<path d="M38.2221 16.935H46.3771C48.5704 16.935 50.1571 17.4717 51.1371 18.545C52.1404 19.6183 52.6421 21.3683 52.6421 23.795V25.125C52.6421 27.995 51.6154 29.71 49.5621 30.27C50.8221 30.5967 51.7088 31.355 52.2221 32.545C52.7354 33.735 52.9921 35.31 52.9921 37.27C52.9921 40.4667 52.5138 42.8933 51.5571 44.55C50.6004 46.1833 48.8738 47 46.3771 47H38.2221V16.935ZM45.3271 28.24C45.8404 28.24 46.1904 28.0533 46.3771 27.68C46.5638 27.2833 46.6571 26.735 46.6571 26.035V23.025C46.6571 22.045 46.2254 21.555 45.3621 21.555H44.1021V28.24H45.3271ZM44.6971 41.715C46.2604 41.715 47.0421 40.9683 47.0421 39.475V35.73C47.0421 34.82 46.9021 34.1317 46.6221 33.665C46.3654 33.1983 45.8988 32.965 45.2221 32.965H44.1021V41.68L44.6971 41.715ZM54.9701 16.935H64.2101C65.6801 16.935 66.8118 17.2733 67.6051 17.95C68.4218 18.6033 68.9701 19.5367 69.2501 20.75C69.5301 21.94 69.6701 23.4683 69.6701 25.335C69.6701 27.0383 69.4485 28.3683 69.0051 29.325C68.5618 30.2817 67.7918 30.9467 66.6951 31.32C67.6051 31.5067 68.2585 31.9617 68.6551 32.685C69.0751 33.4083 69.2851 34.3883 69.2851 35.625L69.2151 47H63.3351V35.24C63.3351 34.4 63.1718 33.8633 62.8451 33.63C62.5185 33.3967 61.9235 33.28 61.0601 33.28V47H54.9701V16.935ZM62.5301 28.065C63.3701 28.065 63.7901 27.155 63.7901 25.335C63.7901 24.5417 63.7551 23.9467 63.6851 23.55C63.6151 23.1533 63.4868 22.885 63.3001 22.745C63.1135 22.5817 62.8451 22.5 62.4951 22.5H61.0951V28.065H62.5301ZM70.8448 47L73.7498 16.935H83.9348L86.8048 47H81.0998L80.6798 42.135H77.0398L76.6898 47H70.8448ZM77.4948 37.34H80.2248L78.8948 22.045H78.6148L77.4948 37.34ZM95.7771 47.28C93.0471 47.28 91.0755 46.6033 89.8621 45.25C88.6488 43.8967 88.0421 41.715 88.0421 38.705V35.765H93.9571V39.51C93.9571 41.0033 94.4355 41.75 95.3921 41.75C95.9288 41.75 96.3021 41.5983 96.5121 41.295C96.7221 40.9683 96.8271 40.4317 96.8271 39.685C96.8271 38.705 96.7105 37.9 96.4771 37.27C96.2438 36.6167 95.9405 36.08 95.5671 35.66C95.2171 35.2167 94.5755 34.54 93.6421 33.63L91.0521 31.04C89.0455 29.08 88.0421 26.91 88.0421 24.53C88.0421 21.9633 88.6255 20.015 89.7921 18.685C90.9821 17.3317 92.7088 16.655 94.9721 16.655C97.6788 16.655 99.6271 17.3783 100.817 18.825C102.007 20.2483 102.602 22.4883 102.602 25.545H96.4771L96.4421 23.48C96.4421 23.0833 96.3255 22.7683 96.0921 22.535C95.8821 22.3017 95.5788 22.185 95.1821 22.185C94.7155 22.185 94.3655 22.3133 94.1321 22.57C93.8988 22.8267 93.7821 23.1767 93.7821 23.62C93.7821 24.6 94.3421 25.615 95.4621 26.665L98.9621 30.025C99.7788 30.8183 100.455 31.5767 100.992 32.3C101.529 33 101.96 33.84 102.287 34.82C102.614 35.7767 102.777 36.92 102.777 38.25C102.777 41.2133 102.229 43.465 101.132 45.005C100.059 46.5217 98.2738 47.28 95.7771 47.28ZM104.77 47V16.935H116.81V22.745H110.895V28.59H116.565V34.26H110.895V41.155H117.195V47H104.77ZM125.389 47.28C123.219 47.28 121.597 46.5217 120.524 45.005C119.474 43.465 118.949 41.1433 118.949 38.04V25.09C118.949 22.3133 119.567 20.2133 120.804 18.79C122.04 17.3667 123.884 16.655 126.334 16.655C128.317 16.655 129.857 17.0517 130.954 17.845C132.05 18.6383 132.809 19.7933 133.229 21.31C133.649 22.8267 133.859 24.775 133.859 27.155H127.979V24.46C127.979 23.7367 127.874 23.1767 127.664 22.78C127.477 22.3833 127.127 22.185 126.614 22.185C125.47 22.185 124.899 22.9317 124.899 24.425V38.985C124.899 39.895 125.015 40.5833 125.249 41.05C125.482 41.5167 125.89 41.75 126.474 41.75C127.057 41.75 127.465 41.5167 127.699 41.05C127.932 40.5833 128.049 39.895 128.049 38.985V34.68H126.439V29.5H133.789V47H131.374L130.359 44.48C129.285 46.3467 127.629 47.28 125.389 47.28ZM143.146 47.28C140.673 47.28 138.829 46.58 137.616 45.18C136.426 43.78 135.831 41.7033 135.831 38.95V16.935H141.676V38.705C141.676 39.6617 141.769 40.4083 141.956 40.945C142.143 41.4817 142.539 41.75 143.146 41.75C143.753 41.75 144.149 41.4933 144.336 40.98C144.523 40.4433 144.616 39.685 144.616 38.705V16.935H150.461V38.95C150.461 41.7033 149.854 43.78 148.641 45.18C147.451 46.58 145.619 47.28 143.146 47.28ZM152.758 16.935H161.998C163.468 16.935 164.6 17.2733 165.393 17.95C166.21 18.6033 166.758 19.5367 167.038 20.75C167.318 21.94 167.458 23.4683 167.458 25.335C167.458 27.0383 167.237 28.3683 166.793 29.325C166.35 30.2817 165.58 30.9467 164.483 31.32C165.393 31.5067 166.047 31.9617 166.443 32.685C166.863 33.4083 167.073 34.3883 167.073 35.625L167.003 47H161.123V35.24C161.123 34.4 160.96 33.8633 160.633 33.63C160.307 33.3967 159.712 33.28 158.848 33.28V47H152.758V16.935ZM160.318 28.065C161.158 28.065 161.578 27.155 161.578 25.335C161.578 24.5417 161.543 23.9467 161.473 23.55C161.403 23.1533 161.275 22.885 161.088 22.745C160.902 22.5817 160.633 22.5 160.283 22.5H158.883V28.065H160.318Z" fill="#0038A8"/>
<rect x="7.74747" y="7.5" width="189.505" height="52" stroke="#033AA6"/>
</svg>
